<?xml version="1.0" encoding="UTF-8" standalone="no"?>
<!DOCTYPE svg PUBLIC "-//W3C//DTD SVG 1.1//EN"
 "http://www.w3.org/Graphics/SVG/1.1/DTD/svg11.dtd">
<!-- Generated by graphviz version 2.29.20121112.0545 (20121112.0545)
 -->
<!-- Title: Game Pages: 1 -->
<svg width="1214pt" height="536pt"
 viewBox="0.00 0.00 1213.95 536.00" xmlns="http://www.w3.org/2000/svg" xmlns:xlink="http://www.w3.org/1999/xlink">
<g id="graph0" class="graph" transform="scale(1 1) rotate(0) translate(4 532)">
<title>Game</title>
<polygon fill="white" stroke="white" points="-4,5 -4,-532 1210.95,-532 1210.95,5 -4,5"/>
<!-- StartGame -->
<g id="node1" class="node"><title>StartGame</title>
<ellipse fill="none" stroke="black" cx="472" cy="-510" rx="52.0008" ry="18"/>
<text text-anchor="middle" x="472" y="-504.4" font-family="Times,serif" font-size="14.00">StartGame</text>
</g>
<!-- WaitPlayerData -->
<g id="node2" class="node"><title>WaitPlayerData</title>
<ellipse fill="none" stroke="black" cx="472" cy="-436" rx="71.4025" ry="18"/>
<text text-anchor="middle" x="472" y="-430.4" font-family="Times,serif" font-size="14.00">WaitPlayerData</text>
</g>
<!-- StartGame&#45;&gt;WaitPlayerData -->
<g id="edge1" class="edge"><title>StartGame&#45;&gt;WaitPlayerData</title>
<path fill="none" stroke="black" d="M472,-491.937C472,-483.807 472,-473.876 472,-464.705"/>
<polygon fill="black" stroke="black" points="475.5,-464.441 472,-454.441 468.5,-464.441 475.5,-464.441"/>
</g>
<!-- StartBuilding -->
<g id="node3" class="node"><title>StartBuilding</title>
<ellipse fill="none" stroke="black" cx="472" cy="-362" rx="63.119" ry="18"/>
<text text-anchor="middle" x="472" y="-356.4" font-family="Times,serif" font-size="14.00">StartBuilding</text>
</g>
<!-- WaitPlayerData&#45;&gt;StartBuilding -->
<g id="edge2" class="edge"><title>WaitPlayerData&#45;&gt;StartBuilding</title>
<path fill="none" stroke="black" d="M472,-417.937C472,-409.807 472,-399.876 472,-390.705"/>
<polygon fill="black" stroke="black" points="475.5,-390.441 472,-380.441 468.5,-390.441 475.5,-390.441"/>
</g>
<!-- WaitTutorialBattleData -->
<g id="node4" class="node"><title>WaitTutorialBattleData</title>
<ellipse fill="none" stroke="black" cx="718" cy="-182" rx="101.148" ry="18"/>
<text text-anchor="middle" x="718" y="-176.4" font-family="Times,serif" font-size="14.00">WaitTutorialBattleData</text>
</g>
<!-- WaitPlayerData&#45;&gt;WaitTutorialBattleData -->
<g id="edge3" class="edge"><title>WaitPlayerData&#45;&gt;WaitTutorialBattleData</title>
<path fill="none" stroke="black" stroke-dasharray="1,5" d="M500.099,-419.417C549.823,-390.297 652.964,-322.65 705,-236 709.647,-228.262 712.635,-218.944 714.556,-210.293"/>
<polygon fill="black" stroke="black" points="718.042,-210.691 716.41,-200.223 711.157,-209.424 718.042,-210.691"/>
<text text-anchor="middle" x="687.623" y="-311.4" font-family="Times,serif" font-size="14.00">tutorial battle?</text>
</g>
<!-- Building -->
<g id="node6" class="node"><title>Building</title>
<ellipse fill="none" stroke="black" cx="472" cy="-272" rx="44.2628" ry="18"/>
<text text-anchor="middle" x="472" y="-266.4" font-family="Times,serif" font-size="14.00">Building</text>
</g>
<!-- StartBuilding&#45;&gt;Building -->
<g id="edge4" class="edge"><title>StartBuilding&#45;&gt;Building</title>
<path fill="none" stroke="black" d="M472,-343.614C472,-331.24 472,-314.369 472,-300.22"/>
<polygon fill="black" stroke="black" points="475.5,-300.05 472,-290.05 468.5,-300.05 475.5,-300.05"/>
</g>
<!-- StartBattle -->
<g id="node5" class="node"><title>StartBattle</title>
<ellipse fill="none" stroke="black" cx="550" cy="-92" rx="52.0078" ry="18"/>
<text text-anchor="middle" x="550" y="-86.4" font-family="Times,serif" font-size="14.00">StartBattle</text>
</g>
<!-- WaitTutorialBattleData&#45;&gt;StartBattle -->
<g id="edge5" class="edge"><title>WaitTutorialBattleData&#45;&gt;StartBattle</title>
<path fill="none" stroke="black" stroke-dasharray="1,5" d="M686.794,-164.654C658.33,-149.744 616.264,-127.71 586.304,-112.017"/>
<polygon fill="black" stroke="black" points="587.906,-108.905 577.424,-107.365 584.658,-115.105 587.906,-108.905"/>
<text text-anchor="middle" x="684.174" y="-131.4" font-family="Times,serif" font-size="14.00">data loaded?</text>
</g>
<!-- Battle -->
<g id="node9" class="node"><title>Battle</title>
<ellipse fill="none" stroke="black" cx="550" cy="-18" rx="34.1487" ry="18"/>
<text text-anchor="middle" x="550" y="-12.4" font-family="Times,serif" font-size="14.00">Battle</text>
</g>
<!-- StartBattle&#45;&gt;Battle -->
<g id="edge6" class="edge"><title>StartBattle&#45;&gt;Battle</title>
<path fill="none" stroke="black" d="M550,-73.937C550,-65.8072 550,-55.8761 550,-46.7047"/>
<polygon fill="black" stroke="black" points="553.5,-46.4406 550,-36.4407 546.5,-46.4407 553.5,-46.4406"/>
</g>
<!-- Building&#45;&gt;StartBattle -->
<g id="edge7" class="edge"><title>Building&#45;&gt;StartBattle</title>
<path fill="none" stroke="black" stroke-dasharray="1,5" d="M461.629,-254.132C449.614,-232.233 433.307,-193.349 448.586,-164 461.091,-139.98 485.854,-122.405 507.779,-110.749"/>
<polygon fill="black" stroke="black" points="509.608,-113.746 516.958,-106.115 506.453,-107.498 509.608,-113.746"/>
<text text-anchor="middle" x="528.707" y="-176.4" font-family="Times,serif" font-size="14.00">Button for Battle is pressed?</text>
</g>
<!-- StartReplay -->
<g id="node7" class="node"><title>StartReplay</title>
<ellipse fill="none" stroke="black" cx="894" cy="-182" rx="56.4428" ry="18"/>
<text text-anchor="middle" x="894" y="-176.4" font-family="Times,serif" font-size="14.00">StartReplay</text>
</g>
<!-- Building&#45;&gt;StartReplay -->
<g id="edge8" class="edge"><title>Building&#45;&gt;StartReplay</title>
<path fill="none" stroke="black" stroke-dasharray="1,5" d="M511.662,-263.83C577.572,-251.75 713.719,-226.093 828,-200 832.657,-198.937 837.487,-197.786 842.32,-196.602"/>
<polygon fill="black" stroke="black" points="843.331,-199.957 852.187,-194.141 841.638,-193.165 843.331,-199.957"/>
<text text-anchor="middle" x="802.204" y="-221.4" font-family="Times,serif" font-size="14.00">Someone asks replay?</text>
</g>
<!-- StartVisit -->
<g id="node8" class="node"><title>StartVisit</title>
<ellipse fill="none" stroke="black" cx="356" cy="-182" rx="47.2218" ry="18"/>
<text text-anchor="middle" x="356" y="-176.4" font-family="Times,serif" font-size="14.00">StartVisit</text>
</g>
<!-- Building&#45;&gt;StartVisit -->
<g id="edge9" class="edge"><title>Building&#45;&gt;StartVisit</title>
<path fill="none" stroke="black" stroke-dasharray="1,5" d="M427.562,-269.612C375.017,-266.926 292.226,-259.052 272.873,-236 258.073,-218.371 281.763,-204.638 307.588,-195.572"/>
<polygon fill="black" stroke="black" points="308.719,-198.885 317.132,-192.445 306.539,-192.233 308.719,-198.885"/>
<text text-anchor="middle" x="349.063" y="-221.4" font-family="Times,serif" font-size="14.00">Button for Visit is pressed?</text>
</g>
<!-- Building&#45;&gt;WaitTutorialBattleData -->
<g id="edge10" class="edge"><title>Building&#45;&gt;WaitTutorialBattleData</title>
<path fill="none" stroke="black" stroke-dasharray="1,5" d="M466.908,-253.675C464.676,-242.189 464.188,-227.532 472.578,-218 491.763,-196.203 573.254,-204.105 602,-200 612.002,-198.572 622.486,-197.058 632.889,-195.546"/>
<polygon fill="black" stroke="black" points="633.429,-199.004 642.821,-194.1 632.42,-192.077 633.429,-199.004"/>
<text text-anchor="middle" x="515.711" y="-221.4" font-family="Times,serif" font-size="14.00">Tutorial battle?</text>
</g>
<!-- Replay -->
<g id="node10" class="node"><title>Replay</title>
<ellipse fill="none" stroke="black" cx="894" cy="-92" rx="38.0859" ry="18"/>
<text text-anchor="middle" x="894" y="-86.4" font-family="Times,serif" font-size="14.00">Replay</text>
</g>
<!-- StartReplay&#45;&gt;Replay -->
<g id="edge11" class="edge"><title>StartReplay&#45;&gt;Replay</title>
<path fill="none" stroke="black" d="M894,-163.614C894,-151.24 894,-134.369 894,-120.22"/>
<polygon fill="black" stroke="black" points="897.5,-120.05 894,-110.05 890.5,-120.05 897.5,-120.05"/>
</g>
<!-- Visit -->
<g id="node11" class="node"><title>Visit</title>
<ellipse fill="none" stroke="black" cx="356" cy="-92" rx="29.3645" ry="18"/>
<text text-anchor="middle" x="356" y="-86.4" font-family="Times,serif" font-size="14.00">Visit</text>
</g>
<!-- StartVisit&#45;&gt;Visit -->
<g id="edge12" class="edge"><title>StartVisit&#45;&gt;Visit</title>
<path fill="none" stroke="black" d="M356,-163.614C356,-151.24 356,-134.369 356,-120.22"/>
<polygon fill="black" stroke="black" points="359.5,-120.05 356,-110.05 352.5,-120.05 359.5,-120.05"/>
</g>
<!-- Battle&#45;&gt;StartBuilding -->
<g id="edge13" class="edge"><title>Battle&#45;&gt;StartBuilding</title>
<path fill="none" stroke="black" stroke-dasharray="1,5" d="M530.183,-32.8199C501.372,-52.3754 445.704,-88.1668 394,-110 311.422,-144.871 253.915,-92.6331 199.676,-164 132.001,-253.044 318.315,-319.183 416.23,-346.8"/>
<polygon fill="black" stroke="black" points="415.419,-350.208 425.991,-349.509 417.291,-343.462 415.419,-350.208"/>
<text text-anchor="middle" x="250.162" y="-176.4" font-family="Times,serif" font-size="14.00">Battle is finished?</text>
</g>
<!-- Battle&#45;&gt;StartGame -->
<g id="edge14" class="edge"><title>Battle&#45;&gt;StartGame</title>
<path fill="none" stroke="black" stroke-dasharray="1,5" d="M584.052,-19.848C704.182,-23.2849 1101,-38.6031 1101,-91 1101,-437 1101,-437 1101,-437 1101,-493.667 692.83,-505.759 534.097,-508.319"/>
<polygon fill="black" stroke="black" points="533.954,-504.821 524.009,-508.475 534.062,-511.82 533.954,-504.821"/>
<text text-anchor="middle" x="1153.47" y="-266.4" font-family="Times,serif" font-size="14.00">Battle is canceled?</text>
</g>
<!-- Replay&#45;&gt;StartGame -->
<g id="edge15" class="edge"><title>Replay&#45;&gt;StartGame</title>
<path fill="none" stroke="black" stroke-dasharray="1,5" d="M919.503,-105.695C944.54,-120.168 979,-146.377 979,-181 979,-437 979,-437 979,-437 979,-481.461 669.432,-500.4 534.09,-506.556"/>
<polygon fill="black" stroke="black" points="533.709,-503.07 523.875,-507.012 534.021,-510.063 533.709,-503.07"/>
<text text-anchor="middle" x="1032.27" y="-311.4" font-family="Times,serif" font-size="14.00">Replay is finished?</text>
</g>
<!-- Visit&#45;&gt;StartGame -->
<g id="edge16" class="edge"><title>Visit&#45;&gt;StartGame</title>
<path fill="none" stroke="black" stroke-dasharray="1,5" d="M326.867,-93.9752C241.844,-97.6048 0,-113.833 0,-181 0,-437 0,-437 0,-437 0,-478.06 282.736,-498.691 410.554,-505.921"/>
<polygon fill="black" stroke="black" points="410.41,-509.418 420.589,-506.478 410.799,-502.429 410.41,-509.418"/>
<text text-anchor="middle" x="87.4932" y="-311.4" font-family="Times,serif" font-size="14.00">Button for Building is pressed?</text>
</g>
</g>
</svg>
