<?xml version="1.0" encoding="UTF-8" standalone="no"?>
<!DOCTYPE svg PUBLIC "-//W3C//DTD SVG 1.1//EN"
 "http://www.w3.org/Graphics/SVG/1.1/DTD/svg11.dtd">
<!-- Generated by graphviz version 2.29.20121112.0545 (20121112.0545)
 -->
<!-- Title: Initialize Pages: 1 -->
<svg width="1004pt" height="2134pt"
 viewBox="0.00 0.00 1004.15 2134.00" xmlns="http://www.w3.org/2000/svg" xmlns:xlink="http://www.w3.org/1999/xlink">
<g id="graph0" class="graph" transform="scale(1 1) rotate(0) translate(4 2130)">
<title>Initialize</title>
<polygon fill="white" stroke="white" points="-4,5 -4,-2130 1001.15,-2130 1001.15,5 -4,5"/>
<!-- Login -->
<g id="node1" class="node"><title>Login</title>
<polygon fill="none" stroke="black" points="282.152,-2126 228.152,-2126 228.152,-2090 282.152,-2090 282.152,-2126"/>
<text text-anchor="middle" x="255.152" y="-2102.4" font-family="Times,serif" font-size="14.00">Login</text>
</g>
<!-- LoginGameCenter -->
<g id="node2" class="node"><title>LoginGameCenter</title>
<ellipse fill="none" stroke="black" cx="192.152" cy="-2018" rx="82.3544" ry="18"/>
<text text-anchor="middle" x="192.152" y="-2012.4" font-family="Times,serif" font-size="14.00">LoginGameCenter</text>
</g>
<!-- Login&#45;&gt;LoginGameCenter -->
<g id="edge1" class="edge"><title>Login&#45;&gt;LoginGameCenter</title>
<path fill="none" stroke="black" stroke-dasharray="1,5" d="M242.705,-2089.61C233.5,-2076.76 220.816,-2059.04 210.457,-2044.57"/>
<polygon fill="black" stroke="black" points="213.026,-2042.14 204.359,-2036.05 207.334,-2046.22 213.026,-2042.14"/>
<text text-anchor="middle" x="260.275" y="-2057.4" font-family="Times,serif" font-size="14.00">on device?</text>
</g>
<!-- DevCheckInstall -->
<g id="node3" class="node"><title>DevCheckInstall</title>
<ellipse fill="none" stroke="black" cx="441.152" cy="-1928" rx="75.4003" ry="18"/>
<text text-anchor="middle" x="441.152" y="-1922.4" font-family="Times,serif" font-size="14.00">DevCheckInstall</text>
</g>
<!-- Login&#45;&gt;DevCheckInstall -->
<g id="edge2" class="edge"><title>Login&#45;&gt;DevCheckInstall</title>
<path fill="none" stroke="black" stroke-dasharray="1,5" d="M273.243,-2089.94C279.267,-2084.24 286.007,-2077.86 292.152,-2072 335.996,-2030.22 386.848,-1981.32 416.373,-1952.89"/>
<polygon fill="black" stroke="black" points="418.984,-1955.23 423.758,-1945.77 414.128,-1950.19 418.984,-1955.23"/>
<text text-anchor="middle" x="395.337" y="-2012.4" font-family="Times,serif" font-size="14.00">on editor?</text>
</g>
<!-- CheckMaintenance -->
<g id="node4" class="node"><title>CheckMaintenance</title>
<ellipse fill="none" stroke="black" cx="436.152" cy="-1404" rx="85.3639" ry="18"/>
<text text-anchor="middle" x="436.152" y="-1398.4" font-family="Times,serif" font-size="14.00">CheckMaintenance</text>
</g>
<!-- LoginGameCenter&#45;&gt;CheckMaintenance -->
<g id="edge3" class="edge"><title>LoginGameCenter&#45;&gt;CheckMaintenance</title>
<path fill="none" stroke="black" stroke-dasharray="1,5" d="M224.054,-2001.1C248.883,-1986.23 279.152,-1961.44 279.152,-1929 279.152,-1929 279.152,-1929 279.152,-1747 279.152,-1723.44 276.071,-1717.32 279.38,-1694 286.39,-1644.58 298.623,-1634.56 310.152,-1586 321.649,-1537.57 303.775,-1517.57 331.152,-1476 345.662,-1453.97 369.606,-1437 390.968,-1425.19"/>
<polygon fill="black" stroke="black" points="392.732,-1428.22 399.93,-1420.44 389.455,-1422.03 392.732,-1428.22"/>
<text text-anchor="middle" x="319.038" y="-1697.4" font-family="Times,serif" font-size="14.00">not first time?</text>
</g>
<!-- GGLLogin -->
<g id="node5" class="node"><title>GGLLogin</title>
<ellipse fill="none" stroke="black" cx="177.152" cy="-1928" rx="53.4262" ry="18"/>
<text text-anchor="middle" x="177.152" y="-1922.4" font-family="Times,serif" font-size="14.00">GGLLogin</text>
</g>
<!-- LoginGameCenter&#45;&gt;GGLLogin -->
<g id="edge4" class="edge"><title>LoginGameCenter&#45;&gt;GGLLogin</title>
<path fill="none" stroke="black" stroke-dasharray="1,5" d="M189.189,-1999.61C187.079,-1987.24 184.204,-1970.37 181.792,-1956.22"/>
<polygon fill="black" stroke="black" points="185.189,-1955.32 180.058,-1946.05 178.289,-1956.5 185.189,-1955.32"/>
<text text-anchor="middle" x="214.344" y="-1967.4" font-family="Times,serif" font-size="14.00">first time?</text>
</g>
<!-- DevCheckMaintenanceForNewUser -->
<g id="node34" class="node"><title>DevCheckMaintenanceForNewUser</title>
<ellipse fill="none" stroke="black" cx="500.152" cy="-1838" rx="151.322" ry="18"/>
<text text-anchor="middle" x="500.152" y="-1832.4" font-family="Times,serif" font-size="14.00">DevCheckMaintenanceForNewUser</text>
</g>
<!-- DevCheckInstall&#45;&gt;DevCheckMaintenanceForNewUser -->
<g id="edge5" class="edge"><title>DevCheckInstall&#45;&gt;DevCheckMaintenanceForNewUser</title>
<path fill="none" stroke="black" stroke-dasharray="1,5" d="M452.528,-1910.03C461.124,-1897.21 473.073,-1879.39 482.851,-1864.8"/>
<polygon fill="black" stroke="black" points="485.948,-1866.47 488.61,-1856.22 480.134,-1862.57 485.948,-1866.47"/>
<text text-anchor="middle" x="518.535" y="-1877.4" font-family="Times,serif" font-size="14.00">no uuid found?</text>
</g>
<!-- DevRequestXuid -->
<g id="node35" class="node"><title>DevRequestXuid</title>
<ellipse fill="none" stroke="black" cx="436.152" cy="-1568" rx="77.3258" ry="18"/>
<text text-anchor="middle" x="436.152" y="-1562.4" font-family="Times,serif" font-size="14.00">DevRequestXuid</text>
</g>
<!-- DevCheckInstall&#45;&gt;DevRequestXuid -->
<g id="edge6" class="edge"><title>DevCheckInstall&#45;&gt;DevRequestXuid</title>
<path fill="none" stroke="black" stroke-dasharray="1,5" d="M404.393,-1912.22C381.087,-1900.69 352.837,-1882.2 339.152,-1856 316.294,-1812.24 368.829,-1684.04 391.152,-1640 399.087,-1624.35 409.496,-1607.73 418.305,-1594.52"/>
<polygon fill="black" stroke="black" points="421.389,-1596.2 424.097,-1585.96 415.592,-1592.28 421.389,-1596.2"/>
<text text-anchor="middle" x="380.785" y="-1742.4" font-family="Times,serif" font-size="14.00">has uuid?</text>
</g>
<!-- Maintenance -->
<g id="node7" class="node"><title>Maintenance</title>
<ellipse fill="none" stroke="black" cx="193.152" cy="-1076" rx="60.3592" ry="18"/>
<text text-anchor="middle" x="193.152" y="-1070.4" font-family="Times,serif" font-size="14.00">Maintenance</text>
</g>
<!-- CheckMaintenance&#45;&gt;Maintenance -->
<g id="edge7" class="edge"><title>CheckMaintenance&#45;&gt;Maintenance</title>
<path fill="none" stroke="black" stroke-dasharray="1,5" d="M361.261,-1395.33C289.862,-1385.89 193.152,-1366.53 193.152,-1331 193.152,-1331 193.152,-1331 193.152,-1165 193.152,-1144.63 193.152,-1121.61 193.152,-1104.22"/>
<polygon fill="black" stroke="black" points="196.652,-1104.2 193.152,-1094.2 189.652,-1104.2 196.652,-1104.2"/>
<text text-anchor="middle" x="251.261" y="-1250.4" font-family="Times,serif" font-size="14.00">While Maintenance?</text>
</g>
<!-- CheckNewApp -->
<g id="node12" class="node"><title>CheckNewApp</title>
<ellipse fill="none" stroke="black" cx="436.152" cy="-1330" rx="70.3577" ry="18"/>
<text text-anchor="middle" x="436.152" y="-1324.4" font-family="Times,serif" font-size="14.00">CheckNewApp</text>
</g>
<!-- CheckMaintenance&#45;&gt;CheckNewApp -->
<g id="edge8" class="edge"><title>CheckMaintenance&#45;&gt;CheckNewApp</title>
<path fill="none" stroke="black" d="M436.152,-1385.94C436.152,-1377.81 436.152,-1367.88 436.152,-1358.7"/>
<polygon fill="black" stroke="black" points="439.652,-1358.44 436.152,-1348.44 432.652,-1358.44 439.652,-1358.44"/>
</g>
<!-- GGLLoginWait -->
<g id="node6" class="node"><title>GGLLoginWait</title>
<ellipse fill="none" stroke="black" cx="177.152" cy="-1838" rx="71.4236" ry="18"/>
<text text-anchor="middle" x="177.152" y="-1832.4" font-family="Times,serif" font-size="14.00">GGLLoginWait</text>
</g>
<!-- GGLLogin&#45;&gt;GGLLoginWait -->
<g id="edge9" class="edge"><title>GGLLogin&#45;&gt;GGLLoginWait</title>
<path fill="none" stroke="black" d="M177.152,-1909.61C177.152,-1897.24 177.152,-1880.37 177.152,-1866.22"/>
<polygon fill="black" stroke="black" points="180.652,-1866.05 177.152,-1856.05 173.652,-1866.05 180.652,-1866.05"/>
</g>
<!-- GGLLoginWait&#45;&gt;Maintenance -->
<g id="edge10" class="edge"><title>GGLLoginWait&#45;&gt;Maintenance</title>
<path fill="none" stroke="black" stroke-dasharray="1,5" d="M129.895,-1824.46C94.4972,-1811.87 52.1521,-1788.54 52.1521,-1749 52.1521,-1749 52.1521,-1749 52.1521,-1165 52.1521,-1124.03 95.5157,-1101.44 134.147,-1089.44"/>
<polygon fill="black" stroke="black" points="135.218,-1092.78 143.837,-1086.61 133.257,-1086.06 135.218,-1092.78"/>
<text text-anchor="middle" x="111.813" y="-1443.4" font-family="Times,serif" font-size="14.00">replied maintenance?</text>
</g>
<!-- GGLQueryXuid -->
<g id="node8" class="node"><title>GGLQueryXuid</title>
<ellipse fill="none" stroke="black" cx="177.152" cy="-1748" rx="73.9958" ry="18"/>
<text text-anchor="middle" x="177.152" y="-1742.4" font-family="Times,serif" font-size="14.00">GGLQueryXuid</text>
</g>
<!-- GGLLoginWait&#45;&gt;GGLQueryXuid -->
<g id="edge11" class="edge"><title>GGLLoginWait&#45;&gt;GGLQueryXuid</title>
<path fill="none" stroke="black" stroke-dasharray="1,5" d="M177.152,-1819.61C177.152,-1807.24 177.152,-1790.37 177.152,-1776.22"/>
<polygon fill="black" stroke="black" points="180.652,-1776.05 177.152,-1766.05 173.652,-1776.05 180.652,-1776.05"/>
<text text-anchor="middle" x="210.006" y="-1787.4" font-family="Times,serif" font-size="14.00">login done?</text>
</g>
<!-- ShowMaintenanceDialog -->
<g id="node16" class="node"><title>ShowMaintenanceDialog</title>
<ellipse fill="none" stroke="black" cx="193.152" cy="-986" rx="109.286" ry="18"/>
<text text-anchor="middle" x="193.152" y="-980.4" font-family="Times,serif" font-size="14.00">ShowMaintenanceDialog</text>
</g>
<!-- Maintenance&#45;&gt;ShowMaintenanceDialog -->
<g id="edge12" class="edge"><title>Maintenance&#45;&gt;ShowMaintenanceDialog</title>
<path fill="none" stroke="black" stroke-dasharray="1,5" d="M133.816,-1072.11C84.6197,-1068.32 20.1921,-1059.66 3.83766,-1040 -1.27922,-1033.85 -1.27922,-1028.15 3.83766,-1022 15.0006,-1008.58 48.5601,-1000.29 84.3859,-995.17"/>
<polygon fill="black" stroke="black" points="85.0881,-998.608 94.534,-993.809 84.1574,-991.67 85.0881,-998.608"/>
<text text-anchor="middle" x="91.8093" y="-1025.4" font-family="Times,serif" font-size="14.00">mentenanceMessage Changed?</text>
</g>
<!-- GGLQueryXuidWait -->
<g id="node9" class="node"><title>GGLQueryXuidWait</title>
<ellipse fill="none" stroke="black" cx="177.152" cy="-1658" rx="91.9932" ry="18"/>
<text text-anchor="middle" x="177.152" y="-1652.4" font-family="Times,serif" font-size="14.00">GGLQueryXuidWait</text>
</g>
<!-- GGLQueryXuid&#45;&gt;GGLQueryXuidWait -->
<g id="edge13" class="edge"><title>GGLQueryXuid&#45;&gt;GGLQueryXuidWait</title>
<path fill="none" stroke="black" d="M177.152,-1729.61C177.152,-1717.24 177.152,-1700.37 177.152,-1686.22"/>
<polygon fill="black" stroke="black" points="180.652,-1686.05 177.152,-1676.05 173.652,-1686.05 180.652,-1686.05"/>
</g>
<!-- GGLKeywordFilterLogin -->
<g id="node10" class="node"><title>GGLKeywordFilterLogin</title>
<ellipse fill="none" stroke="black" cx="191.152" cy="-1568" rx="110.213" ry="18"/>
<text text-anchor="middle" x="191.152" y="-1562.4" font-family="Times,serif" font-size="14.00">GGLKeywordFilterLogin</text>
</g>
<!-- GGLQueryXuidWait&#45;&gt;GGLKeywordFilterLogin -->
<g id="edge14" class="edge"><title>GGLQueryXuidWait&#45;&gt;GGLKeywordFilterLogin</title>
<path fill="none" stroke="black" stroke-dasharray="1,5" d="M179.918,-1639.61C181.887,-1627.24 184.571,-1610.37 186.822,-1596.22"/>
<polygon fill="black" stroke="black" points="190.325,-1596.48 188.44,-1586.05 183.412,-1595.38 190.325,-1596.48"/>
<text text-anchor="middle" x="227.157" y="-1607.4" font-family="Times,serif" font-size="14.00">xuid received?</text>
</g>
<!-- RegisterGrowthPush -->
<g id="node11" class="node"><title>RegisterGrowthPush</title>
<ellipse fill="none" stroke="black" cx="191.152" cy="-1494" rx="91.2618" ry="18"/>
<text text-anchor="middle" x="191.152" y="-1488.4" font-family="Times,serif" font-size="14.00">RegisterGrowthPush</text>
</g>
<!-- GGLKeywordFilterLogin&#45;&gt;RegisterGrowthPush -->
<g id="edge15" class="edge"><title>GGLKeywordFilterLogin&#45;&gt;RegisterGrowthPush</title>
<path fill="none" stroke="black" d="M191.152,-1549.94C191.152,-1541.81 191.152,-1531.88 191.152,-1522.7"/>
<polygon fill="black" stroke="black" points="194.652,-1522.44 191.152,-1512.44 187.652,-1522.44 194.652,-1522.44"/>
</g>
<!-- RegisterGrowthPush&#45;&gt;CheckMaintenance -->
<g id="edge16" class="edge"><title>RegisterGrowthPush&#45;&gt;CheckMaintenance</title>
<path fill="none" stroke="black" d="M219.932,-1476.66C241.061,-1465.19 270.736,-1450.14 298.152,-1440 320.265,-1431.82 345.058,-1424.88 367.464,-1419.39"/>
<polygon fill="black" stroke="black" points="368.329,-1422.78 377.238,-1417.05 366.697,-1415.97 368.329,-1422.78"/>
</g>
<!-- ShowNewApp -->
<g id="node13" class="node"><title>ShowNewApp</title>
<ellipse fill="none" stroke="black" cx="929.152" cy="-1076" rx="67.3554" ry="18"/>
<text text-anchor="middle" x="929.152" y="-1070.4" font-family="Times,serif" font-size="14.00">ShowNewApp</text>
</g>
<!-- CheckNewApp&#45;&gt;ShowNewApp -->
<g id="edge17" class="edge"><title>CheckNewApp&#45;&gt;ShowNewApp</title>
<path fill="none" stroke="black" stroke-dasharray="1,5" d="M471.333,-1314.4C544.195,-1283.68 716.156,-1208.68 852.152,-1130 868.205,-1120.71 885.271,-1109.15 899.245,-1099.2"/>
<polygon fill="black" stroke="black" points="901.441,-1101.94 907.51,-1093.25 897.35,-1096.26 901.441,-1101.94"/>
<text text-anchor="middle" x="799.313" y="-1205.4" font-family="Times,serif" font-size="14.00">application Update is needed?</text>
</g>
<!-- RequestMeta -->
<g id="node14" class="node"><title>RequestMeta</title>
<ellipse fill="none" stroke="black" cx="436.152" cy="-1256" rx="61.4852" ry="18"/>
<text text-anchor="middle" x="436.152" y="-1250.4" font-family="Times,serif" font-size="14.00">RequestMeta</text>
</g>
<!-- CheckNewApp&#45;&gt;RequestMeta -->
<g id="edge18" class="edge"><title>CheckNewApp&#45;&gt;RequestMeta</title>
<path fill="none" stroke="black" d="M436.152,-1311.94C436.152,-1303.81 436.152,-1293.88 436.152,-1284.7"/>
<polygon fill="black" stroke="black" points="439.652,-1284.44 436.152,-1274.44 432.652,-1284.44 439.652,-1284.44"/>
</g>
<!-- WaitForever -->
<g id="node15" class="node"><title>WaitForever</title>
<polygon fill="none" stroke="black" points="971.378,-1004 886.926,-1004 886.926,-968 971.378,-968 971.378,-1004"/>
<text text-anchor="middle" x="929.152" y="-980.4" font-family="Times,serif" font-size="14.00">WaitForever</text>
</g>
<!-- ShowNewApp&#45;&gt;WaitForever -->
<g id="edge19" class="edge"><title>ShowNewApp&#45;&gt;WaitForever</title>
<path fill="none" stroke="black" d="M929.152,-1057.61C929.152,-1045.24 929.152,-1028.37 929.152,-1014.22"/>
<polygon fill="black" stroke="black" points="932.652,-1014.05 929.152,-1004.05 925.652,-1014.05 932.652,-1014.05"/>
</g>
<!-- WaitMeta -->
<g id="node17" class="node"><title>WaitMeta</title>
<ellipse fill="none" stroke="black" cx="436.152" cy="-1166" rx="48.3167" ry="18"/>
<text text-anchor="middle" x="436.152" y="-1160.4" font-family="Times,serif" font-size="14.00">WaitMeta</text>
</g>
<!-- RequestMeta&#45;&gt;WaitMeta -->
<g id="edge20" class="edge"><title>RequestMeta&#45;&gt;WaitMeta</title>
<path fill="none" stroke="black" d="M436.152,-1237.61C436.152,-1225.24 436.152,-1208.37 436.152,-1194.22"/>
<polygon fill="black" stroke="black" points="439.652,-1194.05 436.152,-1184.05 432.652,-1194.05 439.652,-1194.05"/>
</g>
<!-- ShowMaintenanceDialog&#45;&gt;Maintenance -->
<g id="edge21" class="edge"><title>ShowMaintenanceDialog&#45;&gt;Maintenance</title>
<path fill="none" stroke="black" d="M193.152,-1004.05C193.152,-1016.34 193.152,-1033.2 193.152,-1047.39"/>
<polygon fill="black" stroke="black" points="189.652,-1047.61 193.152,-1057.61 196.652,-1047.61 189.652,-1047.61"/>
</g>
<!-- WaitMeta&#45;&gt;Maintenance -->
<g id="edge22" class="edge"><title>WaitMeta&#45;&gt;Maintenance</title>
<path fill="none" stroke="black" stroke-dasharray="1,5" d="M389.221,-1161.37C353.707,-1157.24 304.452,-1148.47 264.831,-1130 253.167,-1124.56 252.431,-1119.74 242.152,-1112 236.429,-1107.69 230.259,-1103.18 224.291,-1098.88"/>
<polygon fill="black" stroke="black" points="225.939,-1095.76 215.768,-1092.79 221.869,-1101.45 225.939,-1095.76"/>
<text text-anchor="middle" x="324.813" y="-1115.4" font-family="Times,serif" font-size="14.00">replied maintenance?</text>
</g>
<!-- WaitMeta&#45;&gt;ShowNewApp -->
<g id="edge23" class="edge"><title>WaitMeta&#45;&gt;ShowNewApp</title>
<path fill="none" stroke="black" stroke-dasharray="1,5" d="M474.069,-1154.68C518.132,-1142.98 593.166,-1123.99 658.565,-1112 725.455,-1099.74 802.419,-1090.22 857.123,-1084.23"/>
<polygon fill="black" stroke="black" points="857.506,-1087.71 867.07,-1083.15 856.751,-1080.75 857.506,-1087.71"/>
<text text-anchor="middle" x="755.946" y="-1115.4" font-family="Times,serif" font-size="14.00">replied new application is needed?</text>
</g>
<!-- CheckMeta -->
<g id="node18" class="node"><title>CheckMeta</title>
<ellipse fill="none" stroke="black" cx="310.152" cy="-896" rx="55.3233" ry="18"/>
<text text-anchor="middle" x="310.152" y="-890.4" font-family="Times,serif" font-size="14.00">CheckMeta</text>
</g>
<!-- WaitMeta&#45;&gt;CheckMeta -->
<g id="edge24" class="edge"><title>WaitMeta&#45;&gt;CheckMeta</title>
<path fill="none" stroke="black" stroke-dasharray="1,5" d="M421.042,-1148.82C392.429,-1118.01 332.698,-1052.85 327.252,-1040 318.676,-1019.76 313.814,-959.876 311.61,-924.345"/>
<polygon fill="black" stroke="black" points="315.093,-923.947 311.01,-914.171 308.105,-924.359 315.093,-923.947"/>
<text text-anchor="middle" x="402.602" y="-1025.4" font-family="Times,serif" font-size="14.00">[development] not use rts?</text>
</g>
<!-- RtsConnect -->
<g id="node19" class="node"><title>RtsConnect</title>
<ellipse fill="none" stroke="black" cx="436.152" cy="-1076" rx="56.1511" ry="18"/>
<text text-anchor="middle" x="436.152" y="-1070.4" font-family="Times,serif" font-size="14.00">RtsConnect</text>
</g>
<!-- WaitMeta&#45;&gt;RtsConnect -->
<g id="edge25" class="edge"><title>WaitMeta&#45;&gt;RtsConnect</title>
<path fill="none" stroke="black" d="M436.152,-1147.61C436.152,-1135.24 436.152,-1118.37 436.152,-1104.22"/>
<polygon fill="black" stroke="black" points="439.652,-1104.05 436.152,-1094.05 432.652,-1104.05 439.652,-1104.05"/>
</g>
<!-- RequestMaster -->
<g id="node20" class="node"><title>RequestMaster</title>
<ellipse fill="none" stroke="black" cx="408.152" cy="-806" rx="68.4463" ry="18"/>
<text text-anchor="middle" x="408.152" y="-800.4" font-family="Times,serif" font-size="14.00">RequestMaster</text>
</g>
<!-- CheckMeta&#45;&gt;RequestMaster -->
<g id="edge26" class="edge"><title>CheckMeta&#45;&gt;RequestMaster</title>
<path fill="none" stroke="black" stroke-dasharray="1,5" d="M328.127,-878.859C343.269,-865.262 365.126,-845.635 382.173,-830.328"/>
<polygon fill="black" stroke="black" points="384.523,-832.922 389.625,-823.636 379.847,-827.713 384.523,-832.922"/>
<text text-anchor="middle" x="455.423" y="-845.4" font-family="Times,serif" font-size="14.00">any master needs to be loaded?</text>
</g>
<!-- LoadMaster -->
<g id="node21" class="node"><title>LoadMaster</title>
<ellipse fill="none" stroke="black" cx="330.152" cy="-626" rx="57.5412" ry="18"/>
<text text-anchor="middle" x="330.152" y="-620.4" font-family="Times,serif" font-size="14.00">LoadMaster</text>
</g>
<!-- CheckMeta&#45;&gt;LoadMaster -->
<g id="edge27" class="edge"><title>CheckMeta&#45;&gt;LoadMaster</title>
<path fill="none" stroke="black" stroke-dasharray="1,5" d="M308.134,-877.784C305.307,-850.874 300.98,-797.24 305.414,-752 308.756,-717.901 317.108,-679.311 323.186,-654.143"/>
<polygon fill="black" stroke="black" points="326.634,-654.778 325.63,-644.231 319.837,-653.102 326.634,-654.778"/>
<text text-anchor="middle" x="355.521" y="-755.4" font-family="Times,serif" font-size="14.00">has latest master?</text>
</g>
<!-- WaitRtsConnect -->
<g id="node22" class="node"><title>WaitRtsConnect</title>
<ellipse fill="none" stroke="black" cx="502.152" cy="-986" rx="74.1486" ry="18"/>
<text text-anchor="middle" x="502.152" y="-980.4" font-family="Times,serif" font-size="14.00">WaitRtsConnect</text>
</g>
<!-- RtsConnect&#45;&gt;WaitRtsConnect -->
<g id="edge28" class="edge"><title>RtsConnect&#45;&gt;WaitRtsConnect</title>
<path fill="none" stroke="black" stroke-dasharray="1,5" d="M460.075,-1059.49C467.228,-1053.99 474.628,-1047.33 480.152,-1040 485.992,-1032.26 490.572,-1022.74 494.006,-1013.91"/>
<polygon fill="black" stroke="black" points="497.344,-1014.97 497.402,-1004.38 490.75,-1012.62 497.344,-1014.97"/>
<text text-anchor="middle" x="559.361" y="-1025.4" font-family="Times,serif" font-size="14.00">get information of RTS?</text>
</g>
<!-- WaitMaster -->
<g id="node25" class="node"><title>WaitMaster</title>
<ellipse fill="none" stroke="black" cx="408.152" cy="-716" rx="55.2777" ry="18"/>
<text text-anchor="middle" x="408.152" y="-710.4" font-family="Times,serif" font-size="14.00">WaitMaster</text>
</g>
<!-- RequestMaster&#45;&gt;WaitMaster -->
<g id="edge29" class="edge"><title>RequestMaster&#45;&gt;WaitMaster</title>
<path fill="none" stroke="black" d="M408.152,-787.614C408.152,-775.24 408.152,-758.369 408.152,-744.22"/>
<polygon fill="black" stroke="black" points="411.652,-744.05 408.152,-734.05 404.652,-744.05 411.652,-744.05"/>
</g>
<!-- CheckDownloadAssets -->
<g id="node26" class="node"><title>CheckDownloadAssets</title>
<ellipse fill="none" stroke="black" cx="330.152" cy="-552" rx="101.233" ry="18"/>
<text text-anchor="middle" x="330.152" y="-546.4" font-family="Times,serif" font-size="14.00">CheckDownloadAssets</text>
</g>
<!-- LoadMaster&#45;&gt;CheckDownloadAssets -->
<g id="edge30" class="edge"><title>LoadMaster&#45;&gt;CheckDownloadAssets</title>
<path fill="none" stroke="black" d="M330.152,-607.937C330.152,-599.807 330.152,-589.876 330.152,-580.705"/>
<polygon fill="black" stroke="black" points="333.652,-580.441 330.152,-570.441 326.652,-580.441 333.652,-580.441"/>
</g>
<!-- WaitRtsConnect&#45;&gt;CheckMeta -->
<g id="edge31" class="edge"><title>WaitRtsConnect&#45;&gt;CheckMeta</title>
<path fill="none" stroke="black" stroke-dasharray="1,5" d="M429.965,-981.958C400.13,-977.664 366.612,-968.6 341.027,-950 331.919,-943.378 325.067,-933.183 320.161,-923.497"/>
<polygon fill="black" stroke="black" points="323.225,-921.78 315.894,-914.132 316.856,-924.683 323.225,-921.78"/>
<text text-anchor="middle" x="417.715" y="-935.4" font-family="Times,serif" font-size="14.00">success of connect to RTS?</text>
</g>
<!-- Defending -->
<g id="node23" class="node"><title>Defending</title>
<ellipse fill="none" stroke="black" cx="783.152" cy="-896" rx="51.1958" ry="18"/>
<text text-anchor="middle" x="783.152" y="-890.4" font-family="Times,serif" font-size="14.00">Defending</text>
</g>
<!-- WaitRtsConnect&#45;&gt;Defending -->
<g id="edge32" class="edge"><title>WaitRtsConnect&#45;&gt;Defending</title>
<path fill="none" stroke="black" stroke-dasharray="1,5" d="M572.074,-979.773C611.36,-975.126 660.681,-966.388 702.152,-950 721.227,-942.462 740.525,-930.066 755.497,-919.156"/>
<polygon fill="black" stroke="black" points="757.873,-921.749 763.778,-912.953 753.676,-916.147 757.873,-921.749"/>
<text text-anchor="middle" x="766.249" y="-935.4" font-family="Times,serif" font-size="14.00">defending?</text>
</g>
<!-- WaitPreviousBattle -->
<g id="node24" class="node"><title>WaitPreviousBattle</title>
<ellipse fill="none" stroke="black" cx="564.152" cy="-896" rx="85.3457" ry="18"/>
<text text-anchor="middle" x="564.152" y="-890.4" font-family="Times,serif" font-size="14.00">WaitPreviousBattle</text>
</g>
<!-- WaitRtsConnect&#45;&gt;WaitPreviousBattle -->
<g id="edge33" class="edge"><title>WaitRtsConnect&#45;&gt;WaitPreviousBattle</title>
<path fill="none" stroke="black" stroke-dasharray="1,5" d="M498.44,-967.587C497.054,-956.629 497.1,-942.605 503.396,-932 506.659,-926.505 511.139,-921.792 516.199,-917.771"/>
<polygon fill="black" stroke="black" points="518.3,-920.573 524.537,-912.009 514.321,-914.814 518.3,-920.573"/>
<text text-anchor="middle" x="601.53" y="-935.4" font-family="Times,serif" font-size="14.00">previous battle is running on RTS?</text>
</g>
<!-- Defending&#45;&gt;RtsConnect -->
<g id="edge34" class="edge"><title>Defending&#45;&gt;RtsConnect</title>
<path fill="none" stroke="black" stroke-dasharray="1,5" d="M795.129,-913.533C801.27,-924.141 806.45,-938.105 801.152,-950 786.556,-982.773 771.336,-984.609 741.152,-1004 667.992,-1051 567.193,-1066.99 501.85,-1072.36"/>
<polygon fill="black" stroke="black" points="501.382,-1068.89 491.677,-1073.14 501.914,-1075.87 501.382,-1068.89"/>
<text text-anchor="middle" x="813.094" y="-980.4" font-family="Times,serif" font-size="14.00">polling?</text>
</g>
<!-- WaitPreviousBattle&#45;&gt;RtsConnect -->
<g id="edge35" class="edge"><title>WaitPreviousBattle&#45;&gt;RtsConnect</title>
<path fill="none" stroke="black" stroke-dasharray="1,5" d="M645.42,-901.853C678.742,-908.076 707.595,-921.503 698.152,-950 682.467,-997.336 673.554,-1013.76 631.152,-1040 609.513,-1053.39 547.738,-1063 499.456,-1068.72"/>
<polygon fill="black" stroke="black" points="498.91,-1065.26 489.377,-1069.88 499.712,-1072.21 498.91,-1065.26"/>
<text text-anchor="middle" x="715.094" y="-980.4" font-family="Times,serif" font-size="14.00">polling?</text>
</g>
<!-- WaitMaster&#45;&gt;LoadMaster -->
<g id="edge36" class="edge"><title>WaitMaster&#45;&gt;LoadMaster</title>
<path fill="none" stroke="black" stroke-dasharray="1,5" d="M393.481,-698.448C381.715,-685.173 365.029,-666.349 351.739,-651.354"/>
<polygon fill="black" stroke="black" points="354.01,-648.64 344.758,-643.478 348.771,-653.283 354.01,-648.64"/>
<text text-anchor="middle" x="423.371" y="-665.4" font-family="Times,serif" font-size="14.00">master received?</text>
</g>
<!-- StartAssetDownload -->
<g id="node27" class="node"><title>StartAssetDownload</title>
<ellipse fill="none" stroke="black" cx="449.152" cy="-462" rx="90.4487" ry="18"/>
<text text-anchor="middle" x="449.152" y="-456.4" font-family="Times,serif" font-size="14.00">StartAssetDownload</text>
</g>
<!-- CheckDownloadAssets&#45;&gt;StartAssetDownload -->
<g id="edge37" class="edge"><title>CheckDownloadAssets&#45;&gt;StartAssetDownload</title>
<path fill="none" stroke="black" stroke-dasharray="1,5" d="M352.815,-534.241C371.426,-520.478 397.963,-500.854 418.475,-485.686"/>
<polygon fill="black" stroke="black" points="420.614,-488.457 426.573,-479.697 416.452,-482.829 420.614,-488.457"/>
<text text-anchor="middle" x="461.606" y="-501.4" font-family="Times,serif" font-size="14.00">download is needed.?</text>
</g>
<!-- StartUnarchiveFile -->
<g id="node28" class="node"><title>StartUnarchiveFile</title>
<ellipse fill="none" stroke="black" cx="366.152" cy="-314" rx="84.2726" ry="18"/>
<text text-anchor="middle" x="366.152" y="-308.4" font-family="Times,serif" font-size="14.00">StartUnarchiveFile</text>
</g>
<!-- CheckDownloadAssets&#45;&gt;StartUnarchiveFile -->
<g id="edge38" class="edge"><title>CheckDownloadAssets&#45;&gt;StartUnarchiveFile</title>
<path fill="none" stroke="black" d="M330.837,-533.862C332.374,-501.527 336.97,-429.429 349.152,-370 351.056,-360.711 353.884,-350.753 356.689,-341.898"/>
<polygon fill="black" stroke="black" points="360.107,-342.708 359.915,-332.115 353.459,-340.516 360.107,-342.708"/>
</g>
<!-- WaitAssetDownload -->
<g id="node29" class="node"><title>WaitAssetDownload</title>
<ellipse fill="none" stroke="black" cx="449.152" cy="-388" rx="90.5874" ry="18"/>
<text text-anchor="middle" x="449.152" y="-382.4" font-family="Times,serif" font-size="14.00">WaitAssetDownload</text>
</g>
<!-- StartAssetDownload&#45;&gt;WaitAssetDownload -->
<g id="edge39" class="edge"><title>StartAssetDownload&#45;&gt;WaitAssetDownload</title>
<path fill="none" stroke="black" d="M449.152,-443.937C449.152,-435.807 449.152,-425.876 449.152,-416.705"/>
<polygon fill="black" stroke="black" points="452.652,-416.441 449.152,-406.441 445.652,-416.441 452.652,-416.441"/>
</g>
<!-- WaitUnarchiveFile -->
<g id="node30" class="node"><title>WaitUnarchiveFile</title>
<ellipse fill="none" stroke="black" cx="366.152" cy="-240" rx="83.9129" ry="18"/>
<text text-anchor="middle" x="366.152" y="-234.4" font-family="Times,serif" font-size="14.00">WaitUnarchiveFile</text>
</g>
<!-- StartUnarchiveFile&#45;&gt;WaitUnarchiveFile -->
<g id="edge40" class="edge"><title>StartUnarchiveFile&#45;&gt;WaitUnarchiveFile</title>
<path fill="none" stroke="black" d="M366.152,-295.937C366.152,-287.807 366.152,-277.876 366.152,-268.705"/>
<polygon fill="black" stroke="black" points="369.652,-268.441 366.152,-258.441 362.652,-268.441 369.652,-268.441"/>
</g>
<!-- WaitAssetDownload&#45;&gt;StartUnarchiveFile -->
<g id="edge41" class="edge"><title>WaitAssetDownload&#45;&gt;StartUnarchiveFile</title>
<path fill="none" stroke="black" d="M429.902,-370.301C418.902,-360.759 404.942,-348.649 392.891,-338.195"/>
<polygon fill="black" stroke="black" points="395.146,-335.518 385.298,-331.609 390.559,-340.805 395.146,-335.518"/>
</g>
<!-- StartAssetPreload -->
<g id="node31" class="node"><title>StartAssetPreload</title>
<ellipse fill="none" stroke="black" cx="366.152" cy="-166" rx="80.3508" ry="18"/>
<text text-anchor="middle" x="366.152" y="-160.4" font-family="Times,serif" font-size="14.00">StartAssetPreload</text>
</g>
<!-- WaitUnarchiveFile&#45;&gt;StartAssetPreload -->
<g id="edge42" class="edge"><title>WaitUnarchiveFile&#45;&gt;StartAssetPreload</title>
<path fill="none" stroke="black" d="M366.152,-221.937C366.152,-213.807 366.152,-203.876 366.152,-194.705"/>
<polygon fill="black" stroke="black" points="369.652,-194.441 366.152,-184.441 362.652,-194.441 369.652,-194.441"/>
</g>
<!-- WaitAssetPreload -->
<g id="node32" class="node"><title>WaitAssetPreload</title>
<ellipse fill="none" stroke="black" cx="366.152" cy="-92" rx="79.4897" ry="18"/>
<text text-anchor="middle" x="366.152" y="-86.4" font-family="Times,serif" font-size="14.00">WaitAssetPreload</text>
</g>
<!-- StartAssetPreload&#45;&gt;WaitAssetPreload -->
<g id="edge43" class="edge"><title>StartAssetPreload&#45;&gt;WaitAssetPreload</title>
<path fill="none" stroke="black" d="M366.152,-147.937C366.152,-139.807 366.152,-129.876 366.152,-120.705"/>
<polygon fill="black" stroke="black" points="369.652,-120.441 366.152,-110.441 362.652,-120.441 369.652,-120.441"/>
</g>
<!-- Done -->
<g id="node33" class="node"><title>Done</title>
<polygon fill="none" stroke="black" points="393.152,-36 339.152,-36 339.152,-0 393.152,-0 393.152,-36"/>
<text text-anchor="middle" x="366.152" y="-12.4" font-family="Times,serif" font-size="14.00">Done</text>
</g>
<!-- WaitAssetPreload&#45;&gt;Done -->
<g id="edge44" class="edge"><title>WaitAssetPreload&#45;&gt;Done</title>
<path fill="none" stroke="black" d="M366.152,-73.937C366.152,-65.8072 366.152,-55.8761 366.152,-46.7047"/>
<polygon fill="black" stroke="black" points="369.652,-46.4406 366.152,-36.4407 362.652,-46.4407 369.652,-46.4406"/>
</g>
<!-- DevCheckMaintenanceForNewUser&#45;&gt;Maintenance -->
<g id="edge45" class="edge"><title>DevCheckMaintenanceForNewUser&#45;&gt;Maintenance</title>
<path fill="none" stroke="black" stroke-dasharray="1,5" d="M531.517,-1820.38C551.689,-1808.05 576.737,-1789.36 591.152,-1766 612.571,-1731.28 605.133,-1716.59 609.152,-1676 622.315,-1543.06 628.608,-1476.29 530.152,-1386 471.812,-1332.5 416.357,-1399.39 356.152,-1348 316.228,-1313.92 338.62,-1283.9 313.152,-1238 284.395,-1186.17 240.907,-1132.18 214.938,-1101.75"/>
<polygon fill="black" stroke="black" points="217.283,-1099.11 208.105,-1093.81 211.978,-1103.67 217.283,-1099.11"/>
<text text-anchor="middle" x="648.261" y="-1443.4" font-family="Times,serif" font-size="14.00">While Maintenance?</text>
</g>
<!-- DevRequestInstall -->
<g id="node36" class="node"><title>DevRequestInstall</title>
<ellipse fill="none" stroke="black" cx="500.152" cy="-1748" rx="82.062" ry="18"/>
<text text-anchor="middle" x="500.152" y="-1742.4" font-family="Times,serif" font-size="14.00">DevRequestInstall</text>
</g>
<!-- DevCheckMaintenanceForNewUser&#45;&gt;DevRequestInstall -->
<g id="edge46" class="edge"><title>DevCheckMaintenanceForNewUser&#45;&gt;DevRequestInstall</title>
<path fill="none" stroke="black" d="M500.152,-1819.61C500.152,-1807.24 500.152,-1790.37 500.152,-1776.22"/>
<polygon fill="black" stroke="black" points="503.652,-1776.05 500.152,-1766.05 496.652,-1776.05 503.652,-1776.05"/>
</g>
<!-- DevRequestXuidWait -->
<g id="node38" class="node"><title>DevRequestXuidWait</title>
<ellipse fill="none" stroke="black" cx="436.152" cy="-1494" rx="95.3233" ry="18"/>
<text text-anchor="middle" x="436.152" y="-1488.4" font-family="Times,serif" font-size="14.00">DevRequestXuidWait</text>
</g>
<!-- DevRequestXuid&#45;&gt;DevRequestXuidWait -->
<g id="edge47" class="edge"><title>DevRequestXuid&#45;&gt;DevRequestXuidWait</title>
<path fill="none" stroke="black" d="M436.152,-1549.94C436.152,-1541.81 436.152,-1531.88 436.152,-1522.7"/>
<polygon fill="black" stroke="black" points="439.652,-1522.44 436.152,-1512.44 432.652,-1522.44 439.652,-1522.44"/>
</g>
<!-- DevRequestInstallWait -->
<g id="node37" class="node"><title>DevRequestInstallWait</title>
<ellipse fill="none" stroke="black" cx="500.152" cy="-1658" rx="100.059" ry="18"/>
<text text-anchor="middle" x="500.152" y="-1652.4" font-family="Times,serif" font-size="14.00">DevRequestInstallWait</text>
</g>
<!-- DevRequestInstall&#45;&gt;DevRequestInstallWait -->
<g id="edge48" class="edge"><title>DevRequestInstall&#45;&gt;DevRequestInstallWait</title>
<path fill="none" stroke="black" d="M500.152,-1729.61C500.152,-1717.24 500.152,-1700.37 500.152,-1686.22"/>
<polygon fill="black" stroke="black" points="503.652,-1686.05 500.152,-1676.05 496.652,-1686.05 503.652,-1686.05"/>
</g>
<!-- DevRequestInstallWait&#45;&gt;DevRequestXuid -->
<g id="edge49" class="edge"><title>DevRequestInstallWait&#45;&gt;DevRequestXuid</title>
<path fill="none" stroke="black" stroke-dasharray="1,5" d="M487.812,-1640.03C478.339,-1627.01 465.112,-1608.82 454.413,-1594.11"/>
<polygon fill="black" stroke="black" points="457.166,-1591.94 448.454,-1585.92 451.505,-1596.06 457.166,-1591.94"/>
<text text-anchor="middle" x="515.157" y="-1607.4" font-family="Times,serif" font-size="14.00">uuid received?</text>
</g>
<!-- DevRequestXuidWait&#45;&gt;CheckMaintenance -->
<g id="edge50" class="edge"><title>DevRequestXuidWait&#45;&gt;CheckMaintenance</title>
<path fill="none" stroke="black" d="M436.152,-1475.61C436.152,-1463.24 436.152,-1446.37 436.152,-1432.22"/>
<polygon fill="black" stroke="black" points="439.652,-1432.05 436.152,-1422.05 432.652,-1432.05 439.652,-1432.05"/>
</g>
</g>
</svg>
