<?xml version="1.0" encoding="UTF-8" standalone="no"?>
<!DOCTYPE svg PUBLIC "-//W3C//DTD SVG 1.1//EN"
 "http://www.w3.org/Graphics/SVG/1.1/DTD/svg11.dtd">
<!-- Generated by graphviz version 2.29.20121112.0545 (20121112.0545)
 -->
<!-- Title: Main Pages: 1 -->
<svg width="586pt" height="1118pt"
 viewBox="0.00 0.00 585.68 1118.00" xmlns="http://www.w3.org/2000/svg" xmlns:xlink="http://www.w3.org/1999/xlink">
<g id="graph0" class="graph" transform="scale(1 1) rotate(0) translate(4 1114)">
<title>Main</title>
<polygon fill="white" stroke="white" points="-4,5 -4,-1114 582.68,-1114 582.68,5 -4,5"/>
<!-- Start -->
<g id="node1" class="node"><title>Start</title>
<polygon fill="none" stroke="black" points="76,-1110 22,-1110 22,-1074 76,-1074 76,-1110"/>
<text text-anchor="middle" x="49" y="-1086.4" font-family="Times,serif" font-size="14.00">Start</text>
</g>
<!-- Init -->
<g id="node2" class="node"><title>Init</title>
<ellipse fill="none" stroke="black" cx="49" cy="-1018" rx="27" ry="18"/>
<text text-anchor="middle" x="49" y="-1012.4" font-family="Times,serif" font-size="14.00">Init</text>
</g>
<!-- Start&#45;&gt;Init -->
<g id="edge1" class="edge"><title>Start&#45;&gt;Init</title>
<path fill="none" stroke="black" d="M49,-1073.94C49,-1065.81 49,-1055.88 49,-1046.7"/>
<polygon fill="black" stroke="black" points="52.5001,-1046.44 49,-1036.44 45.5001,-1046.44 52.5001,-1046.44"/>
</g>
<!-- AppInit -->
<g id="node3" class="node"><title>AppInit</title>
<ellipse fill="none" stroke="black" cx="274" cy="-362" rx="41.1166" ry="18"/>
<text text-anchor="middle" x="274" y="-356.4" font-family="Times,serif" font-size="14.00">AppInit</text>
</g>
<!-- Init&#45;&gt;AppInit -->
<g id="edge2" class="edge"><title>Init&#45;&gt;AppInit</title>
<path fill="none" stroke="black" stroke-dasharray="1,5" d="M34.8272,-1002.48C20.3556,-986.07 0,-957.853 0,-929 0,-929 0,-929 0,-435 0,-389.341 144.121,-372.039 223.315,-365.979"/>
<polygon fill="black" stroke="black" points="223.852,-369.449 233.57,-365.229 223.342,-362.467 223.852,-369.449"/>
<text text-anchor="middle" x="79.1157" y="-668.4" font-family="Times,serif" font-size="14.00">application version is same?</text>
</g>
<!-- InstallFirstPrioriryAssets -->
<g id="node4" class="node"><title>InstallFirstPrioriryAssets</title>
<ellipse fill="none" stroke="black" cx="166" cy="-928" rx="108.215" ry="18"/>
<text text-anchor="middle" x="166" y="-922.4" font-family="Times,serif" font-size="14.00">InstallFirstPrioriryAssets</text>
</g>
<!-- Init&#45;&gt;InstallFirstPrioriryAssets -->
<g id="edge3" class="edge"><title>Init&#45;&gt;InstallFirstPrioriryAssets</title>
<path fill="none" stroke="black" stroke-dasharray="1,5" d="M66.2638,-1004.02C84.5259,-990.28 113.697,-968.339 135.784,-951.727"/>
<polygon fill="black" stroke="black" points="137.976,-954.457 143.864,-945.649 133.769,-948.863 137.976,-954.457"/>
<text text-anchor="middle" x="206.054" y="-967.4" font-family="Times,serif" font-size="14.00">application version is changed?</text>
</g>
<!-- WaitAppInit -->
<g id="node11" class="node"><title>WaitAppInit</title>
<ellipse fill="none" stroke="black" cx="274" cy="-288" rx="59.1141" ry="18"/>
<text text-anchor="middle" x="274" y="-282.4" font-family="Times,serif" font-size="14.00">WaitAppInit</text>
</g>
<!-- AppInit&#45;&gt;WaitAppInit -->
<g id="edge4" class="edge"><title>AppInit&#45;&gt;WaitAppInit</title>
<path fill="none" stroke="black" d="M274,-343.937C274,-335.807 274,-325.876 274,-316.705"/>
<polygon fill="black" stroke="black" points="277.5,-316.441 274,-306.441 270.5,-316.441 277.5,-316.441"/>
</g>
<!-- WaitInstallingFirstPriorityAssets -->
<g id="node5" class="node"><title>WaitInstallingFirstPriorityAssets</title>
<ellipse fill="none" stroke="black" cx="166" cy="-854" rx="137.424" ry="18"/>
<text text-anchor="middle" x="166" y="-848.4" font-family="Times,serif" font-size="14.00">WaitInstallingFirstPriorityAssets</text>
</g>
<!-- InstallFirstPrioriryAssets&#45;&gt;WaitInstallingFirstPriorityAssets -->
<g id="edge5" class="edge"><title>InstallFirstPrioriryAssets&#45;&gt;WaitInstallingFirstPriorityAssets</title>
<path fill="none" stroke="black" d="M166,-909.937C166,-901.807 166,-891.876 166,-882.705"/>
<polygon fill="black" stroke="black" points="169.5,-882.441 166,-872.441 162.5,-882.441 169.5,-882.441"/>
</g>
<!-- StartAgreementDialog -->
<g id="node6" class="node"><title>StartAgreementDialog</title>
<ellipse fill="none" stroke="black" cx="274" cy="-764" rx="98.1875" ry="18"/>
<text text-anchor="middle" x="274" y="-758.4" font-family="Times,serif" font-size="14.00">StartAgreementDialog</text>
</g>
<!-- WaitInstallingFirstPriorityAssets&#45;&gt;StartAgreementDialog -->
<g id="edge6" class="edge"><title>WaitInstallingFirstPriorityAssets&#45;&gt;StartAgreementDialog</title>
<path fill="none" stroke="black" stroke-dasharray="1,5" d="M154.765,-835.782C149.032,-824.631 144.738,-810.318 152.503,-800 159.928,-790.134 169.956,-782.914 181.084,-777.654"/>
<polygon fill="black" stroke="black" points="182.763,-780.746 190.658,-773.681 180.08,-774.281 182.763,-780.746"/>
<text text-anchor="middle" x="276.249" y="-803.4" font-family="Times,serif" font-size="14.00">Priority assets are installed and first launch?</text>
</g>
<!-- ShowTitle -->
<g id="node7" class="node"><title>ShowTitle</title>
<ellipse fill="none" stroke="black" cx="274" cy="-584" rx="50.4068" ry="18"/>
<text text-anchor="middle" x="274" y="-578.4" font-family="Times,serif" font-size="14.00">ShowTitle</text>
</g>
<!-- WaitInstallingFirstPriorityAssets&#45;&gt;ShowTitle -->
<g id="edge7" class="edge"><title>WaitInstallingFirstPriorityAssets&#45;&gt;ShowTitle</title>
<path fill="none" stroke="black" stroke-dasharray="1,5" d="M296.084,-848.119C341.472,-843.461 384.688,-834.623 399,-818 423.753,-789.252 555.569,-937.778 381,-656 365.934,-631.681 339.087,-613.903 316.056,-602.219"/>
<polygon fill="black" stroke="black" points="317.32,-598.942 306.794,-597.735 314.27,-605.243 317.32,-598.942"/>
<text text-anchor="middle" x="499.34" y="-713.4" font-family="Times,serif" font-size="14.00">Priority assets are installed?</text>
</g>
<!-- WaitAgreementDialog -->
<g id="node8" class="node"><title>WaitAgreementDialog</title>
<ellipse fill="none" stroke="black" cx="274" cy="-674" rx="98.3269" ry="18"/>
<text text-anchor="middle" x="274" y="-668.4" font-family="Times,serif" font-size="14.00">WaitAgreementDialog</text>
</g>
<!-- StartAgreementDialog&#45;&gt;WaitAgreementDialog -->
<g id="edge8" class="edge"><title>StartAgreementDialog&#45;&gt;WaitAgreementDialog</title>
<path fill="none" stroke="black" d="M274,-745.614C274,-733.24 274,-716.369 274,-702.22"/>
<polygon fill="black" stroke="black" points="277.5,-702.05 274,-692.05 270.5,-702.05 277.5,-702.05"/>
</g>
<!-- InstallAllStartUpAssets -->
<g id="node9" class="node"><title>InstallAllStartUpAssets</title>
<ellipse fill="none" stroke="black" cx="274" cy="-510" rx="102.161" ry="18"/>
<text text-anchor="middle" x="274" y="-504.4" font-family="Times,serif" font-size="14.00">InstallAllStartUpAssets</text>
</g>
<!-- ShowTitle&#45;&gt;InstallAllStartUpAssets -->
<g id="edge9" class="edge"><title>ShowTitle&#45;&gt;InstallAllStartUpAssets</title>
<path fill="none" stroke="black" d="M274,-565.937C274,-557.807 274,-547.876 274,-538.705"/>
<polygon fill="black" stroke="black" points="277.5,-538.441 274,-528.441 270.5,-538.441 277.5,-538.441"/>
</g>
<!-- WaitAgreementDialog&#45;&gt;ShowTitle -->
<g id="edge10" class="edge"><title>WaitAgreementDialog&#45;&gt;ShowTitle</title>
<path fill="none" stroke="black" stroke-dasharray="1,5" d="M274,-655.614C274,-643.24 274,-626.369 274,-612.22"/>
<polygon fill="black" stroke="black" points="277.5,-612.05 274,-602.05 270.5,-612.05 277.5,-612.05"/>
<text text-anchor="middle" x="297.707" y="-623.4" font-family="Times,serif" font-size="14.00">Agreed?</text>
</g>
<!-- WaitAllStartUpAssetsInstalled -->
<g id="node10" class="node"><title>WaitAllStartUpAssetsInstalled</title>
<ellipse fill="none" stroke="black" cx="274" cy="-436" rx="129.329" ry="18"/>
<text text-anchor="middle" x="274" y="-430.4" font-family="Times,serif" font-size="14.00">WaitAllStartUpAssetsInstalled</text>
</g>
<!-- InstallAllStartUpAssets&#45;&gt;WaitAllStartUpAssetsInstalled -->
<g id="edge11" class="edge"><title>InstallAllStartUpAssets&#45;&gt;WaitAllStartUpAssetsInstalled</title>
<path fill="none" stroke="black" d="M274,-491.937C274,-483.807 274,-473.876 274,-464.705"/>
<polygon fill="black" stroke="black" points="277.5,-464.441 274,-454.441 270.5,-464.441 277.5,-464.441"/>
</g>
<!-- WaitAllStartUpAssetsInstalled&#45;&gt;AppInit -->
<g id="edge12" class="edge"><title>WaitAllStartUpAssetsInstalled&#45;&gt;AppInit</title>
<path fill="none" stroke="black" d="M274,-417.937C274,-409.807 274,-399.876 274,-390.705"/>
<polygon fill="black" stroke="black" points="277.5,-390.441 274,-380.441 270.5,-390.441 277.5,-390.441"/>
</g>
<!-- WaitUserData -->
<g id="node12" class="node"><title>WaitUserData</title>
<ellipse fill="none" stroke="black" cx="274" cy="-198" rx="65.2474" ry="18"/>
<text text-anchor="middle" x="274" y="-192.4" font-family="Times,serif" font-size="14.00">WaitUserData</text>
</g>
<!-- WaitAppInit&#45;&gt;WaitUserData -->
<g id="edge13" class="edge"><title>WaitAppInit&#45;&gt;WaitUserData</title>
<path fill="none" stroke="black" stroke-dasharray="1,5" d="M274,-269.614C274,-257.24 274,-240.369 274,-226.22"/>
<polygon fill="black" stroke="black" points="277.5,-226.05 274,-216.05 270.5,-226.05 277.5,-226.05"/>
<text text-anchor="middle" x="336.597" y="-237.4" font-family="Times,serif" font-size="14.00">Application init done?</text>
</g>
<!-- WaitTouch -->
<g id="node13" class="node"><title>WaitTouch</title>
<ellipse fill="none" stroke="black" cx="274" cy="-108" rx="53.0465" ry="18"/>
<text text-anchor="middle" x="274" y="-102.4" font-family="Times,serif" font-size="14.00">WaitTouch</text>
</g>
<!-- WaitUserData&#45;&gt;WaitTouch -->
<g id="edge14" class="edge"><title>WaitUserData&#45;&gt;WaitTouch</title>
<path fill="none" stroke="black" stroke-dasharray="1,5" d="M274,-179.614C274,-167.24 274,-150.369 274,-136.22"/>
<polygon fill="black" stroke="black" points="277.5,-136.05 274,-126.05 270.5,-136.05 277.5,-136.05"/>
<text text-anchor="middle" x="327.83" y="-147.4" font-family="Times,serif" font-size="14.00">Receive UserData?</text>
</g>
<!-- WaitGame -->
<g id="node14" class="node"><title>WaitGame</title>
<polygon fill="none" stroke="black" points="311.144,-36 236.856,-36 236.856,-0 311.144,-0 311.144,-36"/>
<text text-anchor="middle" x="274" y="-12.4" font-family="Times,serif" font-size="14.00">WaitGame</text>
</g>
<!-- WaitTouch&#45;&gt;WaitGame -->
<g id="edge15" class="edge"><title>WaitTouch&#45;&gt;WaitGame</title>
<path fill="none" stroke="black" stroke-dasharray="1,5" d="M274,-89.614C274,-77.2403 274,-60.3686 274,-46.2198"/>
<polygon fill="black" stroke="black" points="277.5,-46.0504 274,-36.0504 270.5,-46.0504 277.5,-46.0504"/>
<text text-anchor="middle" x="297.608" y="-57.4" font-family="Times,serif" font-size="14.00">Tapped?</text>
</g>
</g>
</svg>
